<svg xmlns="http://www.w3.org/2000/svg" width="128" height="128" viewBox="0 0 128 128">
    <g transform="translate(-42 422)">
        <rect width="128" height="128" transform="translate(42 -422)" fill="none"/>
        <g transform="translate(42 -408.02)">
            <path d="M160.35,90.618c.387-16.348-12.6-30.2-28.95-30.381a29.266,29.266,0,0,0-25.65,14.579A29.265,29.265,0,0,0,80.1,60.238c-16.352.177-29.336,14.032-28.95,30.381.864,36.532,44.557,68.308,53.144,74.205a2.567,2.567,0,0,0,2.912,0c8.587-5.9,52.281-37.673,53.144-74.205Zm0,0" transform="translate(-41.751 -60.236)" fill="#c00"/>
            <path d="M284.252,92.142c0,36.986-44.474,69.334-53.158,75.3a2.573,2.573,0,0,1-2.916,0c-2.139-1.469-6.456-4.543-11.746-8.9,8.719-5.992,53.134-38.322,53.134-75.285A29.153,29.153,0,0,0,262.1,63.727a29.3,29.3,0,0,1,22.152,28.415Zm0,0" transform="translate(-165.639 -62.852)" fill="#a40101"/>
            <path d="M77.289,210.937a3.3,3.3,0,0,1-3.248-2.692l-8.068-42.859-8.585,20.4a3.3,3.3,0,0,1-6,.2l-2.3-4.562H16.955a3.3,3.3,0,0,1,0-6.608H51.133a3.3,3.3,0,0,1,2.942,1.8L64.143,152.7a3.3,3.3,0,0,1,6.293.669l6.652,35.341,2.753-16.536a3.3,3.3,0,0,1,3.257-2.762H93.881a3.3,3.3,0,0,1,2.768,1.5l5.063,7.771,2.184-2.656a3.3,3.3,0,0,1,2.553-1.207h31.9a3.3,3.3,0,0,1,0,6.608H108.01l-4.053,4.931a3.3,3.3,0,0,1-5.321-.294l-6.545-10.045H85.9l-5.351,32.154a3.3,3.3,0,0,1-3.223,2.76Zm0,0" transform="translate(-13.652 -128.024)" fill="#40c6e6"/>
        </g>
    </g>
</svg>