<svg width="17" height="16" viewBox="0 0 17 16" fill="none" xmlns="http://www.w3.org/2000/svg">
    <defs>
        <style>
            .shape {
                fill: #fff;
            }
        </style>
    </defs>
    <path class="shape" fill-rule="evenodd" clip-rule="evenodd" d="M8.02859 5.52859C8.28894 5.26824 8.71106 5.26824 8.9714 5.52859L10.9714 7.52859C11.0964 7.65362 11.1667 7.82319 11.1667 8C11.1667 8.17681 11.0964 8.34638 10.9714 8.4714L8.9714 10.4714C8.71106 10.7318 8.28895 10.7318 8.0286 10.4714C7.76825 10.2111 7.76825 9.78894 8.02859 9.52859L8.89052 8.66667L3.16667 8.66667C2.79848 8.66667 2.5 8.36819 2.5 8C2.5 7.63181 2.79848 7.33333 3.16667 7.33333L8.89052 7.33333L8.0286 6.4714C7.76825 6.21105 7.76825 5.78894 8.02859 5.52859Z"></path>
    <path class="shape" fill-rule="evenodd" clip-rule="evenodd" d="M2.5 3.33333C2.5 2.59695 3.09695 2 3.83333 2H13.1667C13.903 2 14.5 2.59695 14.5 3.33333V12.6667C14.5 13.403 13.903 14 13.1667 14H3.83333C3.09695 14 2.5 13.403 2.5 12.6667V11.3333C2.5 10.9651 2.79848 10.6667 3.16667 10.6667C3.53486 10.6667 3.83333 10.9651 3.83333 11.3333V12.6667H13.1667V3.33333H3.83333V4.66667C3.83333 5.03486 3.53486 5.33333 3.16667 5.33333C2.79848 5.33333 2.5 5.03486 2.5 4.66667V3.33333Z"></path>
</svg>