<svg xmlns="http://www.w3.org/2000/svg" width="128" height="128" viewBox="0 0 128 128"><g transform="translate(-42 422)"><rect width="128" height="128" transform="translate(42 -422)" fill="none"/><g transform="translate(61.89 -394.198)"><path d="M126.41,81.176a20.392,20.392,0,0,0-19.953-20.939A20.171,20.171,0,0,0,88.779,70.285,20.17,20.17,0,0,0,71.1,60.237,20.392,20.392,0,0,0,51.147,81.176c.6,25.179,30.709,47.079,36.628,51.144a1.77,1.77,0,0,0,2.007,0c5.918-4.065,36.033-25.965,36.628-51.144Zm0,0" transform="translate(-44.669 -60.236)" fill="#c00"/><path d="M263.175,83.311c0,25.492-30.653,47.786-36.637,51.9a1.774,1.774,0,0,1-2.01,0c-1.474-1.012-4.45-3.131-8.1-6.131,6.01-4.13,36.621-26.412,36.621-51.888a20.093,20.093,0,0,0-5.146-13.464,20.193,20.193,0,0,1,15.267,19.584Zm0,0" transform="translate(-181.424 -63.124)" fill="#a40101"/><path d="M57.512,192.21a2.278,2.278,0,0,1-2.238-1.855l-5.56-29.539L43.8,174.877a2.277,2.277,0,0,1-4.133.14l-1.582-3.144H15.929a2.277,2.277,0,0,1,0-4.554H39.485a2.276,2.276,0,0,1,2.028,1.242l6.939-16.488a2.277,2.277,0,0,1,4.337.461l4.585,24.358,1.9-11.4a2.276,2.276,0,0,1,2.245-1.9h7.432a2.276,2.276,0,0,1,1.908,1.034l3.489,5.356,1.505-1.831a2.277,2.277,0,0,1,1.759-.832H99.6a2.277,2.277,0,0,1,0,4.554H78.686l-2.793,3.4a2.277,2.277,0,0,1-3.667-.2l-4.511-6.923H63.446l-3.688,22.161a2.276,2.276,0,0,1-2.222,1.9Zm0,0" transform="translate(-13.652 -135.065)" fill="#40c6e6"/></g></g></svg>